<svg width = "50.000000" height = "50.000000" viewBox = "0 0 50 50" fill = "none" xmlns = "http://www.w3.org/2000/svg"
     xmlns:xlink = "http://www.w3.org/1999/xlink">

    <!--	MY Skills SVGs-->
    <g id = "code">
        <path d = "M18.3125 42.0645L27.2623 6.6875L31.4375 7.87244L22.4878 43.3125L18.3125 42.0645Z" fill = "#7572D5"
              fill-opacity = "1.000000" fill-rule = "evenodd"/>
        <path d = "M13.5025 12.6875L16.5625 15.9277L7.99501 25.0001L16.5625 34.0721L13.5025 37.3125L1.875 25.0001L13.5025 12.6875Z"
              fill = "#7572D5"/>
        <path d = "M36.4976 12.6875L33.4375 15.9277L42.0051 25.0001L33.4375 34.0721L36.4976 37.3125L48.125 25.0001L36.4976 12.6875Z"
              fill = "#7572D5"/>
    </g>
    <g id = "css">
        <path d = "M38.0508 10.8438L12.946 10.8376L13.3515 15.7546L32.6381 15.7577L32.1519 20.8502L19.5034 20.8502L19.9607 25.6742L31.7357 25.6742L31.0392 32.2806L25.4969 33.7886L19.8662 32.2701L19.508 28.3135L14.5358 28.3135L15.0876 35.5411L25.4969 38.7341L35.7309 35.8652L38.0493 10.8452L38.0508 10.8438ZM5.49841 2.56873L45.4984 2.56873L41.86 42.9999L25.4542 47.5687L9.13991 42.9968L5.49841 2.56873Z"
              fill = "#7572D5"/>
    </g>
    <g id = "react">
        <path d = "M47.8125 25C47.8125 22.0833 44.6875 19.375 39.4792 17.5L38.5417 17.1875L38.5417 16.7708C39.6875 11.0416 38.8542 6.77075 36.25 5.20825C33.6458 3.64575 29.7917 5.10413 25.625 8.75L25 9.375L24.7917 9.16663L24.5833 9.16663C20.3125 5.20825 16.1458 3.85413 13.5417 5.3125C10.9375 6.77075 10.2083 10.8333 11.25 16.1458C11.3596 16.4838 11.4295 16.8334 11.4583 17.1875L10.3125 17.6041C5.20831 19.375 2.1875 22.0833 2.1875 25C2.1875 27.9166 5.52081 30.8333 10.7292 32.7083L11.4583 32.9166C11.3297 33.2854 11.2593 33.672 11.25 34.0625C10.2083 39.2708 11.1458 43.2291 13.5417 44.6875C15.9375 46.1458 20.3125 44.7916 24.4792 41.1458L25.1042 40.625L25.9375 41.4583C28.8542 43.9583 31.7708 45.3125 34.0625 45.3125C34.8708 45.3309 35.6671 45.1138 36.3542 44.6875C38.9583 43.2291 39.8958 38.9583 38.75 33.5416L38.75 33.3333C38.705 33.1619 38.6702 32.988 38.6458 32.8125L38.9583 32.8125C44.4792 30.8333 47.8125 28.0208 47.8125 25ZM44.7917 25C44.7917 26.25 42.5 28.4375 38.0208 29.8958L37.8125 29.8958C37.2664 28.2202 36.6051 26.5844 35.8333 25C36.5625 23.3333 37.1875 21.6666 37.7083 20.1041L38.5417 20.3125C42.7083 21.7708 44.7917 23.75 44.7917 25ZM27.9167 39.1666L27.0833 38.5416C28.2761 37.2201 29.3892 35.8287 30.4167 34.375L35.7292 33.5416C35.8333 33.75 35.8333 33.9583 35.9375 34.0625C36.3087 35.9492 36.379 37.8829 36.1458 39.7916C35.9995 40.7045 35.5609 41.5452 34.8958 42.1875C33.8542 42.8125 31.0417 41.9791 27.9167 39.1666ZM26.5625 34.5833L25.1042 36.4583L23.4375 34.5833L26.5625 34.5833ZM12.2917 20C12.8152 21.7174 13.4771 23.3895 14.2708 25C13.4764 26.646 12.8146 28.3528 12.2917 30.1041L11.6667 29.8958C9.84259 29.3201 8.14539 28.4008 6.66669 27.1875C6.28375 26.9456 5.95605 26.6257 5.70477 26.2489C5.45355 25.8719 5.28442 25.4465 5.20831 25C5.20831 23.75 7.29169 21.7708 11.25 20.4166L12.2917 20ZM23.4375 15.4166L25 13.6458L26.5625 15.4166L23.4375 15.4166ZM34.8958 7.8125C36.0417 8.4375 36.6667 11.5625 35.7292 16.1458C35.7339 16.2023 35.7272 16.259 35.7093 16.3127C35.6913 16.3665 35.6627 16.416 35.625 16.4583L30.4167 15.625C29.3892 14.1713 28.2761 12.7799 27.0833 11.4583L27.7083 10.9375C31.0417 8.02075 33.75 7.1875 34.8958 7.8125ZM17.5 18.8541L16.6667 20.2083L15.9375 21.5625C15.625 20.8333 15.4167 20.1041 15.1042 19.2708L17.5 18.8541ZM15.1042 30.7291C15.4167 30 15.625 29.2708 15.9375 28.4375L16.6667 29.7916L17.5 31.1458L15.1042 30.7291ZM32.5 25C31.9699 26.1421 31.3788 27.2548 30.7292 28.3333C30.1042 29.4791 29.375 30.5208 28.75 31.5625L21.25 31.5625C20.5208 30.4166 19.7917 29.375 19.2708 28.3333C18.6161 27.2577 18.0248 26.1447 17.5 25C18.0054 23.8458 18.5974 22.7316 19.2708 21.6666C19.8693 20.5874 20.5302 19.5439 21.25 18.5416C23.7457 18.3334 26.2543 18.3334 28.75 18.5416C29.4792 19.5833 30.1042 20.625 30.7292 21.6666C31.4026 22.7316 31.9946 23.8458 32.5 25ZM33.3333 20.2083L32.5 18.8541L34.8958 19.375C34.6639 20.1207 34.3856 20.8513 34.0625 21.5625L33.3333 20.2083ZM32.5 31.1458L33.3333 29.7916L34.0625 28.3333L35 30.7291L32.5 31.1458ZM22.8125 11.3541L22.9167 11.3541L19.5833 15.5208L14.375 16.3541C14.2708 16.0416 14.2708 15.8333 14.1667 15.5208C13.3333 11.25 13.9583 8.33325 15 7.8125C15.2766 7.63086 15.61 7.55676 15.9375 7.60413C17.3958 7.60413 19.8958 8.64575 22.7083 11.1458L22.8125 11.3541ZM14.1667 34.5833C14.1857 34.2617 14.256 33.9452 14.375 33.6458L19.6875 34.375C20.689 35.8481 21.8035 37.2412 23.0208 38.5416L22.8125 38.75L22.6042 38.9583C21.184 40.2738 19.5211 41.2999 17.7083 41.9791C17.3107 42.1874 16.875 42.3132 16.4275 42.349C15.98 42.3849 15.5299 42.3298 15.1042 42.1875C13.9583 41.5625 13.3333 38.75 14.1667 34.5833Z"
              fill = "#7572D5"/>
        <path d = "M25 20.4167C24.0894 20.396 23.1932 20.6471 22.4259 21.1379C21.6586 21.6289 21.0549 22.3373 20.692 23.1727C20.3291 24.0082 20.2233 24.9329 20.3882 25.8286C20.5532 26.7245 20.9813 27.5509 21.6179 28.2023C22.2545 28.8538 23.0709 29.3008 23.9626 29.4862C24.8545 29.6716 25.7813 29.5872 26.6249 29.2435C27.4684 28.8999 28.1906 28.3127 28.6989 27.5569C29.2073 26.801 29.4789 25.9109 29.4792 25C29.4795 23.8022 29.0109 22.652 28.1738 21.7954C27.3366 20.9388 26.1974 20.444 25 20.4167Z"
              fill = "#7572D5"/>
    </g>
    <g id = "typescript">
        <path d = "M5 25L5 45L45 45L45 5L5 5L5 25ZM37.235 23.4066C38.2517 23.66 39.025 24.1117 39.7367 24.8484C40.105 25.2417 40.6517 25.9584 40.695 26.1317C40.7083 26.1816 38.9683 27.3484 37.915 28.0033C37.8767 28.0283 37.7233 27.8633 37.5533 27.61C37.0367 26.86 36.4983 26.5366 35.6733 26.48C34.46 26.3966 33.68 27.0316 33.6867 28.0917C33.6756 28.3523 33.7343 28.6112 33.8567 28.8417C34.1233 29.3933 34.62 29.725 36.1733 30.3966C39.0383 31.63 40.2633 32.4417 41.025 33.5967C41.875 34.885 42.0667 36.9434 41.4883 38.4734C40.855 40.1367 39.28 41.2667 37.0633 41.64C36.3783 41.7617 34.7533 41.7433 34.0167 41.61C32.41 41.3234 30.8867 40.53 29.9467 39.4883C29.5783 39.0834 28.86 38.0217 28.905 37.9467C28.9233 37.92 29.0883 37.8184 29.2717 37.7117C29.4517 37.61 30.1233 37.2217 30.7583 36.8533L31.9083 36.1866L32.15 36.5433C32.4867 37.0566 33.2217 37.7617 33.6667 37.9967C34.9433 38.67 36.695 38.575 37.5583 37.8C37.7319 37.6538 37.8694 37.4694 37.9599 37.2611C38.0504 37.053 38.0915 36.8267 38.08 36.6C38.08 36.1367 38.0217 35.9333 37.78 35.5834C37.47 35.14 36.835 34.7667 35.0317 33.9833C32.9683 33.095 32.08 32.5433 31.2667 31.6666C30.759 31.0881 30.3842 30.4055 30.1683 29.6666C30.0167 29.1017 29.9783 27.6851 30.0983 27.115C30.5233 25.12 32.0283 23.7317 34.2 23.3184C34.905 23.1851 36.5433 23.235 37.235 23.4066ZM27.845 25.0767L27.8583 26.715L22.65 26.715L22.65 41.5083L18.9667 41.5083L18.9667 26.715L13.7633 26.715L13.7633 25.1083C13.7633 24.2184 13.7817 23.475 13.8067 23.4584C13.8267 23.4316 16.995 23.4183 20.835 23.425L27.8267 23.4449L27.845 25.0767Z"
              fill = "#7572D5"/>
    </g>
    <g id = "styledComponents">
        <path d = "M37.2591 6.25L36.9888 7.64966C36.5708 10.3021 36.7221 11.061 37.8682 12.0454L38.9747 12.9546L37.8286 18.0305C37.1438 21.0588 36.3041 23.5968 35.7707 24.4308C35.313 25.1504 34.7796 26.21 34.6642 26.7791C34.4732 27.4592 33.8245 28.1429 32.8334 28.7478C31.9576 29.2418 30.2385 30.5663 29.0203 31.6294C28.0472 32.4993 27.3769 33.0326 27.0129 33.2617L25.8235 34.196C25.4415 34.8046 25.2253 35.2949 25.1424 35.6672C25.0595 36.0503 25.1063 36.3044 25.2289 36.4906C25.3478 36.6696 25.5532 36.7948 25.8343 36.8735C26.1671 36.951 26.5097 36.9788 26.8507 36.9559C27.6222 36.9036 28.3858 36.7692 29.1284 36.5549C29.3807 36.4869 29.5789 36.4225 29.7519 36.3652C30.0186 36.0396 30.6349 35.4238 31.7269 34.3535C34.6246 31.5149 35.731 29.9613 34.5885 30.3801C34.1669 30.5305 34.3579 30.151 35.0823 29.3922C36.6104 27.9138 37.4862 25.6802 39.317 18.6748C40.7659 13.1443 40.7659 13.0656 41.8327 13.0656C42.3336 13.0656 43.75 13.1515 43.75 13.1515L43.75 6.25L40.4992 6.25L37.2591 6.25ZM24.4216 18.0806C23.3692 18.0735 21.1058 19.6664 14.3302 25.1611C14.0383 25.8519 14.0131 26.328 14.1464 26.6359C14.2329 26.847 14.3915 26.9939 14.6114 27.1012C14.8276 27.2086 15.1087 27.2731 15.4187 27.2981C16.035 27.3518 16.763 27.2551 17.3504 27.1406L17.7469 27.0511C17.8826 26.8704 18.0608 26.7253 18.2659 26.6287C18.6839 26.3997 20.4391 24.8103 22.1943 23.1063C25.2829 19.9993 26.0073 18.5961 24.7495 18.1415C24.6463 18.1007 24.5326 18.0801 24.4216 18.0806ZM32.336 20.2391C31.4098 20.2642 29.7411 21.3309 26.8831 23.5968C25.4487 24.7531 24.5405 25.3759 24.0539 25.5048L22.1654 26.9867C21.4554 28.2754 21.3509 29.0736 21.5383 29.5139C21.5852 29.6226 21.6533 29.7208 21.7387 29.8031C21.8241 29.8855 21.925 29.9502 22.0357 29.9935C22.311 30.1016 22.6046 30.1562 22.9007 30.1547C23.608 30.1471 24.3112 30.0448 24.991 29.8503C25.3453 29.756 25.6952 29.6461 26.0398 29.521L26.1443 29.4781L26.3353 29.3778C26.6957 28.9161 27.5246 28.0463 28.5626 27.0439C31.8423 23.901 33.5181 21.6674 33.1758 20.8334C33.0208 20.4288 32.7541 20.2249 32.336 20.2391ZM23.5998 24.1051C23.3331 24.1338 22.7349 24.5919 21.6573 25.5298C20.1003 26.8972 18.4028 27.6847 17.8154 27.3339C17.6788 27.3645 17.5419 27.3932 17.4045 27.4198C16.8062 27.538 16.0602 27.6346 15.3934 27.5809C15.0793 27.562 14.7714 27.4856 14.4852 27.3553C14.2153 27.2328 13.9999 27.0164 13.8797 26.7468C13.7464 26.4247 13.7464 26.0238 13.8978 25.5118L11.5551 27.4233L6.2536 31.7798L6.2536 38.8424L23.6251 25.2506C23.6217 25.1018 23.6411 24.9532 23.6827 24.8103C23.8161 24.3306 23.8089 24.0872 23.5998 24.1086L23.5998 24.1051ZM31.0746 26.3925C30.8115 26.3925 30.3718 26.7612 29.669 27.5022C28.714 28.5151 27.2111 29.496 26.4146 29.6964L26.2921 29.7609C26.1613 29.8145 26.0291 29.8646 25.8956 29.9113C25.6794 29.9828 25.3983 30.0687 25.0739 30.1547C24.4252 30.3301 23.6179 30.4911 22.897 30.4733C22.5572 30.4728 22.2207 30.4071 21.9059 30.2799C21.6093 30.1584 21.3716 29.9275 21.2428 29.6356C21.0338 29.1381 21.1167 28.4401 21.5744 27.4485L6.25 39.4365L6.25 43.75L12.9823 43.75L27.2615 32.6102C27.6328 32.2021 28.1914 31.6438 28.9446 30.9457C30.9629 29.0879 31.4206 28.4471 31.4206 27.4985C31.4206 26.7611 31.3377 26.3889 31.0746 26.3889L31.0746 26.3925ZM34.4732 33.3727L33.2514 34.5826C32.5667 35.2269 31.3449 36.0216 30.5088 36.3617L30.343 36.4332L30.3322 36.4512L30.2961 36.4869C30.2637 36.5121 30.2493 36.5156 30.2241 36.5264C29.8903 36.6519 29.5512 36.7629 29.2077 36.8593C28.4441 37.0801 27.6586 37.218 26.8651 37.2709C26.4899 37.2948 26.1132 37.2622 25.7478 37.1742C25.4308 37.105 25.1508 36.9213 24.9622 36.6588C24.7892 36.3939 24.7387 36.0396 24.836 35.6028C24.9134 35.2919 25.0284 34.9915 25.1784 34.7079L13.6563 43.75L28.9807 43.75L30.8115 41.6666C33.3271 38.7528 34.4732 36.6696 34.4732 34.8868L34.4732 33.3727Z"
              fill = "#7572D5"/>
    </g>
    <g id = "webDesign">
        <path d = "M17.7083 4.16663C14.2565 4.16663 11.4583 6.96484 11.4583 10.4166C11.4583 13.8684 14.2565 16.6666 17.7083 16.6666L32.2916 16.6666C35.7435 16.6666 38.5416 13.8684 38.5416 10.4166C38.5416 6.96484 35.7435 4.16663 32.2916 4.16663L17.7083 4.16663Z"
              fill = "#7572D5" fill-opacity = "1.000000" fill-rule = "nonzero"/>
        <path d = "M32.2917 18.75C28.8398 18.75 26.0417 21.5481 26.0417 25C26.0417 28.4519 28.8398 31.25 32.2917 31.25C35.7437 31.25 38.5417 28.4519 38.5417 25C38.5417 21.5481 35.7437 18.75 32.2917 18.75Z"
              fill = "#7572D5"/>
        <path d = "M11.4583 25C11.4583 21.5481 14.2565 18.75 17.7083 18.75L23.9583 18.75L23.9583 31.25L17.7083 31.25C14.2565 31.25 11.4583 28.4519 11.4583 25Z"
              fill = "#7572D5"/>
        <path d = "M17.7083 33.3333C14.2565 33.3333 11.4583 36.1313 11.4583 39.5833C11.4583 43.0352 14.2565 45.8333 17.7083 45.8333C21.1602 45.8333 23.9583 43.0352 23.9583 39.5833L23.9583 33.3333L17.7083 33.3333Z"
              fill = "#7572D5"/>
    </g>

    <!--	Social Networks icons-->
    <g id = "instagram">
        <path d = "M15.6515 2.1001L5.34841 2.1001C3.55685 2.1001 2.09998 3.5564 2.09998 5.34729L2.09998 8.77808L2.09998 15.653C2.09998 17.4438 3.55685 18.9001 5.34841 18.9001L15.6515 18.9001C17.4431 18.9001 18.9 17.4438 18.9 15.653L18.9 8.77161L18.9 5.3407C18.8934 3.5564 17.4365 2.1001 15.6515 2.1001ZM16.5834 4.03528L16.9575 4.03528L16.9575 4.40259L16.9575 6.88232L14.1159 6.88879L14.1094 4.04187L16.5834 4.03528ZM8.0981 8.77161C8.63622 8.03027 9.50904 7.53833 10.4934 7.53833C11.4778 7.53833 12.3506 8.02368 12.8887 8.77161C13.2431 9.25696 13.4465 9.854 13.4465 10.4968C13.4465 12.1237 12.1209 13.4553 10.4868 13.4553C8.85279 13.4553 7.54029 12.1237 7.54029 10.4968C7.54029 9.854 7.75029 9.25696 8.0981 8.77161ZM17.2594 15.6464C17.2594 16.532 16.5375 17.2535 15.6515 17.2535L5.34841 17.2535C4.46248 17.2535 3.7406 16.532 3.7406 15.6464L3.7406 8.77161L6.24747 8.77161C6.03091 9.30286 5.90623 9.88672 5.90623 10.4968C5.90623 13.0289 7.96685 15.0887 10.5 15.0887C13.0331 15.0887 15.0937 13.0289 15.0937 10.4968C15.0937 9.88672 14.969 9.30286 14.7525 8.77161L17.2594 8.77161L17.2594 15.6464Z"
              fill = "currentColor"/>
    </g>

    <g id = "telegram">
        <path d = "M18.9057 4.76477L16.3705 16.7209C16.1791 17.5647 15.6804 17.7747 14.9717 17.3774L11.1085 14.5308L9.24472 16.3237C9.0383 16.5302 8.86607 16.7024 8.46823 16.7024L8.74606 12.7684L15.9054 6.29907C16.2169 6.02185 15.8376 5.86768 15.4218 6.14551L6.57083 11.7189L2.76044 10.526C1.93175 10.2673 1.91675 9.69727 2.93326 9.29944L17.837 3.55737C18.5271 3.29883 19.1308 3.71045 18.9057 4.76477Z"
              fill = "currentColor"/>
    </g>
    <g id = "vk">
        <path d = "M18.1695 13.9939C17.8037 13.5389 17.3881 13.1311 16.9861 12.7368C16.8431 12.5966 16.6954 12.4515 16.5529 12.3074C16.1439 11.8929 16.129 11.7373 16.4528 11.2666C16.6768 10.9421 16.9144 10.6173 17.1441 10.3031C17.3525 10.0181 17.568 9.72327 17.7745 9.42749L17.8169 9.3667C18.2117 8.80078 18.6199 8.21558 18.8371 7.50964C18.8935 7.32336 18.9528 7.04932 18.8173 6.82007C18.682 6.59119 18.4194 6.52124 18.2337 6.48865C18.1418 6.47253 18.0505 6.47034 17.9659 6.47034L15.3809 6.46838L15.3595 6.46814C14.9687 6.46814 14.7053 6.65906 14.5543 7.05176C14.4102 7.42688 14.2519 7.82642 14.0713 8.2063C13.7119 8.96277 13.2554 9.83398 12.5948 10.5607L12.5668 10.5916C12.4888 10.6785 12.4005 10.7769 12.3359 10.7769C12.326 10.7769 12.3152 10.7748 12.303 10.7709C12.1662 10.7156 12.0743 10.3724 12.0785 10.2128C12.0785 10.2106 12.0786 10.2084 12.0786 10.2062L12.0768 7.11023C12.0768 7.09949 12.076 7.08887 12.0747 7.07825C12.0089 6.57495 11.8633 6.26172 11.3129 6.15002C11.2983 6.14697 11.2833 6.14551 11.2684 6.14551L8.58055 6.14551C8.14264 6.14551 7.90134 6.32996 7.67451 6.60596C7.6133 6.67981 7.48584 6.83337 7.54901 7.01978C7.61311 7.20886 7.82115 7.24927 7.8889 7.26245C8.22517 7.32874 8.41472 7.54187 8.46841 7.91431C8.56215 8.56091 8.57365 9.25122 8.50467 10.0865C8.48543 10.3187 8.44737 10.4979 8.38467 10.6511C8.3701 10.6869 8.31845 10.8036 8.26578 10.8036C8.24904 10.8036 8.20062 10.7969 8.11244 10.7339C7.90393 10.5858 7.75137 10.3746 7.57352 10.1138C6.96849 9.22766 6.46069 8.25171 6.02092 7.12915C5.85783 6.71594 5.55322 6.48462 5.16284 6.47778C4.7339 6.47095 4.345 6.46777 3.97409 6.46777C3.56882 6.46777 3.1931 6.47168 2.8262 6.47949C2.51213 6.48523 2.29488 6.58289 2.18056 6.76965C2.06607 6.95679 2.07352 7.20239 2.20271 7.49976C3.23698 9.88232 4.17473 11.6146 5.24341 13.1169C5.9922 14.1681 6.74329 14.8956 7.60681 15.4065C8.5166 15.9458 9.53615 16.208 10.7237 16.208C10.8583 16.208 10.9975 16.2046 11.1378 16.1978C11.8279 16.163 12.0838 15.9042 12.1162 15.208C12.1316 14.8522 12.1692 14.4791 12.338 14.1609C12.4445 13.9604 12.5438 13.9604 12.5765 13.9604C12.6394 13.9604 12.7173 13.9904 12.8011 14.0466C12.9513 14.1482 13.08 14.2843 13.1856 14.4032C13.285 14.5161 13.3833 14.6301 13.4816 14.7443C13.6939 14.9906 13.9133 15.2454 14.1426 15.4868C14.6444 16.0159 15.1973 16.2485 15.8322 16.1981L18.2023 16.1981C18.2073 16.1981 18.2124 16.1979 18.2174 16.1975C18.4536 16.1814 18.6581 16.0457 18.7786 15.8252C18.9278 15.552 18.9248 15.2035 18.7705 14.8927C18.5955 14.5413 18.3685 14.2411 18.1695 13.9939Z"
              fill = "currentColor"/>
    </g>

    <g id = "in">
        <path d = "M4.10077 2.93994C2.89374 2.93994 2.09998 3.72058 2.09998 4.75708C2.09998 5.7738 2.86749 6.5741 4.05484 6.5741L4.08109 6.5741C5.31433 6.5741 6.08185 5.76733 6.07529 4.75708C6.04907 3.72058 5.30777 2.93994 4.10077 2.93994Z"
              fill = "currentColor" fill-opacity = "1.000000" fill-rule = "nonzero"/>
        <path d = "M2.53296 7.88623L5.80637 7.88623L5.80637 18.3624L2.53296 18.3624L2.53296 7.88623Z"
              fill = "currentColor" fill-opacity = "1.000000" fill-rule = "evenodd"/>
        <path d = "M14.7476 7.7876C12.8714 7.7876 11.6972 8.81091 11.4807 9.53259L11.4807 7.88599L7.8006 7.88599C7.84653 8.75842 7.8006 18.3622 7.8006 18.3622L11.4807 18.3622L11.4807 12.701C11.4807 12.3795 11.4676 12.0647 11.5594 11.8417C11.8087 11.2119 12.3532 10.5559 13.3306 10.5559C14.6098 10.5559 15.1871 11.5267 15.1871 12.9437L15.1871 18.3622L18.9 18.3622L18.9 12.537C18.9 9.29639 17.0764 7.7876 14.7476 7.7876Z"
              fill = "currentColor"
        />
    </g>

    <!--	Quote Icon-->
    <g id = "quote">
        <path d = "M13.5417 20.8333C13.0771 20.8333 12.6312 20.9041 12.1875 20.9687C12.3313 20.4853 12.4792 19.9937 12.7167 19.552C12.9542 18.9103 13.325 18.3541 13.6937 17.7937C14.0021 17.1874 14.5458 16.777 14.9458 16.2583C15.3646 15.7541 15.9354 15.4187 16.3875 14.9999C16.8313 14.5624 17.4125 14.3437 17.875 14.0353C18.3583 13.7583 18.7792 13.452 19.2292 13.3062L20.3521 12.8437L21.3396 12.4333L20.3292 8.39575L19.0854 8.69575C18.6875 8.79575 18.2021 8.91241 17.65 9.052C17.0854 9.15617 16.4833 9.44158 15.8125 9.702C15.15 9.99783 14.3833 10.1978 13.6708 10.6728C12.9542 11.127 12.1271 11.5062 11.3979 12.1145C10.6917 12.7416 9.83958 13.2853 9.21042 14.0833C8.52292 14.8291 7.84375 15.6124 7.31667 16.5041C6.70625 17.3541 6.29166 18.2874 5.85416 19.2103C5.45833 20.1332 5.13959 21.077 4.87917 21.9937C4.38542 23.8312 4.16458 25.577 4.07916 27.0708C4.00833 28.5666 4.05 29.8103 4.1375 30.7103C4.16875 31.1353 4.22708 31.5478 4.26875 31.8333L4.32083 32.1833L4.375 32.1708C4.74554 33.9016 5.59854 35.4923 6.83534 36.7586C8.07213 38.025 9.64217 38.9153 11.3638 39.3266C13.0855 39.738 14.8884 39.6535 16.5641 39.0829C18.2397 38.5124 19.7196 37.4791 20.8325 36.1026C21.9454 34.7261 22.6459 33.0627 22.853 31.3047C23.06 29.5467 22.7651 27.7661 22.0023 26.1687C21.2396 24.5714 20.0403 23.2225 18.543 22.2784C17.0458 21.3342 15.3118 20.8331 13.5417 20.8333ZM36.4583 20.8333C35.9937 20.8333 35.5479 20.9041 35.1042 20.9687C35.2479 20.4853 35.3958 19.9937 35.6333 19.552C35.8708 18.9103 36.2417 18.3541 36.6104 17.7937C36.9187 17.1874 37.4625 16.777 37.8625 16.2583C38.2812 15.7541 38.8521 15.4187 39.3042 14.9999C39.7479 14.5624 40.3292 14.3437 40.7917 14.0353C41.275 13.7583 41.6958 13.452 42.1458 13.3062L43.2687 12.8437L44.2562 12.4333L43.2458 8.39575L42.0021 8.69575C41.6042 8.79575 41.1187 8.91241 40.5667 9.052C40.0021 9.15617 39.4 9.44158 38.7292 9.702C38.0688 9.99992 37.3 10.1978 36.5875 10.6749C35.8708 11.1291 35.0437 11.5083 34.3146 12.1166C33.6083 12.7437 32.7562 13.2874 32.1271 14.0833C31.4396 14.8291 30.7604 15.6124 30.2333 16.5041C29.6229 17.3541 29.2083 18.2874 28.7708 19.2103C28.375 20.1332 28.0562 21.077 27.7958 21.9937C27.3021 23.8312 27.0813 25.577 26.9958 27.0708C26.925 28.5666 26.9667 29.8103 27.0542 30.7103C27.0854 31.1353 27.1437 31.5478 27.1854 31.8333L27.2375 32.1833L27.2917 32.1708C27.6622 33.9016 28.5152 35.4923 29.752 36.7586C30.9888 38.025 32.5588 38.9153 34.2805 39.3266C36.0022 39.738 37.8051 39.6535 39.4807 39.0829C41.1564 38.5124 42.6363 37.4791 43.7492 36.1026C44.8621 34.7261 45.5626 33.0627 45.7696 31.3047C45.9766 29.5467 45.6817 27.7661 44.919 26.1687C44.1563 24.5714 42.9569 23.2225 41.4597 22.2784C39.9624 21.3342 38.2284 20.8331 36.4583 20.8333Z"
              fill = "#7572D5"/>
    </g>


</svg>

